<svg width="881" height="875" xmlns="http://www.w3.org/2000/svg" preserveAspectRatio="xMidYMid meet">
 <metadata>Created by potrace 1.16, written by Peter Selinger 2001-2019</metadata>

 <g>
  <title>background</title>
  <rect fill="none" id="canvas_background" height="402" width="582" y="-1" x="-1"/>
 </g>
 <g>
  <title>Layer 1</title>
  <g id="svg_1" fill="#000000" transform="translate(0,875) scale(0.10000000149011612,-0.10000000149011612) ">
   <path fill="#ffffff" id="svg_2" d="m4144,8716c-30,-30 -34,-40 -34,-89c0,-45 5,-61 26,-86c32,-39 88,-55 144,-42c110,25 144,154 59,226c-26,21 -41,25 -96,25c-61,0 -67,-2 -99,-34z"/>
   <path fill="#ffffff" id="svg_3" d="m4600,8728c-50,-34 -70,-93 -50,-150c20,-57 67,-88 132,-88c91,0 138,46 138,135c0,37 -6,52 -34,82c-30,33 -39,37 -92,41c-50,3 -65,0 -94,-20z"/>
   <path fill="#ffffff" id="svg_4" d="m3755,8705c-68,-24 -99,-90 -76,-165c31,-103 198,-116 255,-20c37,63 7,158 -59,186c-42,17 -69,17 -120,-1z"/>
   <path fill="#ffffff" id="svg_5" d="m5054,8690c-11,-4 -33,-22 -47,-40c-21,-25 -27,-42 -27,-81c0,-42 5,-55 34,-86c30,-33 39,-37 94,-41c71,-5 101,9 132,61c54,88 -16,198 -125,196c-22,0 -49,-4 -61,-9z"/>
   <path fill="#ffffff" id="svg_6" d="m3355,8631c-100,-25 -144,-118 -95,-198c37,-62 109,-79 187,-44c48,22 73,62 73,116c0,89 -77,147 -165,126z"/>
   <path fill="#ffffff" id="svg_7" d="m5481,8593c-51,-27 -74,-64 -73,-118c0,-58 22,-92 75,-116c51,-23 89,-24 131,-4c89,42 92,185 6,230c-48,25 -101,28 -139,8z"/>
   <path fill="#ffffff" id="svg_8" d="m2901,8493c-105,-55 -106,-190 -2,-236c40,-17 51,-18 91,-8c29,7 57,24 78,46c27,30 32,42 32,85c0,43 -5,56 -33,86c-28,31 -41,37 -83,41c-35,3 -59,-1 -83,-14z"/>
   <path fill="#ffffff" id="svg_9" d="m5883,8450c-91,-55 -80,-185 20,-230c51,-23 77,-25 122,-6c104,44 96,196 -12,242c-45,19 -92,17 -130,-6z"/>
   <path fill="#ffffff" id="svg_10" d="m2488,8319c-44,-23 -68,-63 -68,-114c0,-75 50,-126 125,-127c142,-3 207,156 99,241c-34,27 -105,27 -156,0z"/>
   <path fill="#ffffff" id="svg_11" d="m6295,8280c-66,-27 -95,-125 -56,-187c42,-68 142,-91 207,-48c54,35 67,128 26,185c-36,49 -121,74 -177,50z"/>
   <path fill="#ffffff" id="svg_12" d="m4110,8254c-19,-2 -84,-9 -145,-15c-520,-52 -1068,-232 -1541,-505c-557,-321 -1049,-802 -1390,-1360c-392,-641 -593,-1398 -571,-2154c19,-613 152,-1143 421,-1675c275,-541 659,-1002 1146,-1371l64,-49l-94,-22c-52,-12 -223,-50 -380,-83c-538,-116 -693,-159 -782,-218c-31,-20 -38,-31 -38,-56c0,-40 52,-93 130,-133c53,-27 61,-28 205,-29c145,-2 161,0 490,62c187,36 469,96 627,134l286,69l64,-34c99,-53 321,-148 458,-198c868,-313 1858,-308 2719,15c1578,591 2608,2120 2557,3798c-26,877 -321,1685 -862,2359c-645,804 -1544,1305 -2596,1447c-107,15 -680,28 -768,18zm630,-305c1417,-129 2639,-1092 3104,-2447c124,-362 182,-684 193,-1077c21,-749 -178,-1460 -583,-2083c-853,-1311 -2442,-1932 -3954,-1546c-212,54 -545,170 -515,180c6,1 119,35 253,74c1544,451 2412,966 2553,1518c15,61 19,110 19,268c0,190 0,193 -29,261c-99,233 -259,426 -471,569c-153,104 -270,157 -450,204c-25,6 -62,16 -82,21l-38,10l0,574l0,575l-230,0l-230,0l0,-525c0,-289 -2,-525 -4,-525c-2,0 -82,13 -177,30c-96,16 -253,41 -349,55c-96,14 -183,28 -192,31c-17,5 -18,36 -18,470l0,464l-230,0l-230,0l0,-401l0,-400l-22,6c-13,4 -57,25 -98,46c-152,79 -247,179 -271,285c-10,43 -9,65 6,130c46,211 215,455 521,754c119,116 184,170 326,268c342,237 623,407 806,487c54,23 165,73 247,110c457,204 915,355 1261,415c189,33 273,35 392,11c57,-12 105,-21 108,-21c6,0 -33,-94 -71,-170c-48,-95 -156,-260 -227,-347c-205,-252 -693,-694 -953,-864c-72,-47 -147,-100 -168,-118c-33,-29 -37,-38 -37,-80c1,-129 104,-214 260,-215c67,-1 84,3 154,37c125,60 320,196 461,323c171,154 551,536 646,649c160,191 264,349 315,480c25,62 28,84 28,190l1,120l-43,88c-24,48 -50,91 -58,94c-7,3 -14,10 -14,15c0,21 -45,72 -89,100c-58,36 -196,81 -351,112l-120,25l-153,-20c-279,-36 -463,-74 -617,-127c-47,-16 -137,-44 -199,-62c-279,-78 -726,-263 -1156,-477c-183,-91 -266,-141 -505,-298c-333,-219 -547,-392 -760,-612c-206,-212 -331,-404 -395,-603c-36,-112 -45,-283 -21,-380c21,-83 94,-236 151,-315c104,-146 317,-291 573,-390l72,-28l0,-719l0,-718l230,0l230,0l0,660c0,521 3,660 13,660c6,0 75,-11 152,-25c160,-29 554,-95 567,-95c4,0 8,-270 8,-600l0,-600l230,0l230,0l0,555c0,305 2,555 4,555c2,0 50,-16 107,-36c311,-108 499,-265 561,-467c19,-65 20,-76 8,-156c-22,-148 -113,-298 -279,-460c-183,-178 -409,-340 -606,-436c-444,-215 -694,-332 -780,-365c-302,-115 -716,-249 -1080,-349l-180,-49l-40,24c-74,43 -279,192 -385,280c-140,116 -385,363 -493,499c-188,235 -312,428 -436,680c-258,521 -381,1044 -381,1621c-1,1928 1509,3524 3440,3634c149,9 377,4 540,-11z"/>
   <path fill="#ffffff" id="svg_13" d="m2124,8121c-61,-28 -84,-63 -84,-128c0,-49 4,-59 34,-89c30,-30 40,-34 86,-34c93,0 150,54 150,143c0,52 -27,93 -76,113c-43,18 -61,17 -110,-5z"/>
   <path fill="#ffffff" id="svg_14" d="m6659,8053c-60,-37 -77,-123 -36,-183c92,-135 289,-55 247,101c-22,81 -139,127 -211,82z"/>
   <path fill="#ffffff" id="svg_15" d="m1754,7872c-51,-32 -74,-69 -74,-119c0,-82 48,-133 125,-133c78,0 136,54 143,134c4,50 2,56 -30,91c-29,32 -42,38 -84,42c-37,3 -57,-1 -80,-15z"/>
   <path fill="#ffffff" id="svg_16" d="m7031,7802c-131,-66 -81,-256 67,-256c154,0 180,198 35,260c-42,18 -61,18 -102,-4z"/>
   <path fill="#ffffff" id="svg_17" d="m1440,7603c-32,-11 -90,-78 -96,-109c-8,-45 11,-98 47,-129c24,-20 41,-25 84,-25c49,0 58,4 94,38c47,45 60,94 39,150c-24,63 -104,98 -168,75z"/>
   <path fill="#ffffff" id="svg_18" d="m7375,7523c-101,-27 -126,-147 -47,-225c91,-92 225,-39 225,89c0,87 -94,158 -178,136z"/>
   <path fill="#ffffff" id="svg_19" d="m1146,7290c-89,-27 -133,-137 -83,-211c31,-46 62,-61 121,-56c43,4 55,10 88,45c34,37 38,46 38,96c0,66 -31,110 -88,126c-42,11 -37,11 -76,0z"/>
   <path fill="#ffffff" id="svg_20" d="m7614,7166c-31,-31 -34,-39 -34,-91c0,-55 2,-60 44,-101c38,-39 49,-44 87,-44c56,0 87,16 116,59c40,60 26,132 -37,185c-26,21 -42,26 -87,26c-49,0 -59,-4 -89,-34z"/>
   <path fill="#ffffff" id="svg_21" d="m840,6928c-119,-82 -75,-251 65,-251c101,0 168,120 120,213c-31,60 -124,79 -185,38z"/>
   <path fill="#ffffff" id="svg_22" d="m7888,6827c-36,-30 -48,-58 -48,-108c0,-83 59,-139 146,-139c39,0 51,5 79,33c60,60 59,131 -4,197c-35,37 -42,40 -92,40c-41,0 -60,-5 -81,-23z"/>
   <path fill="#ffffff" id="svg_23" d="m608,6563c-14,-9 -36,-33 -47,-54c-45,-80 -14,-172 67,-198c145,-46 246,154 126,248c-33,26 -107,28 -146,4z"/>
   <path fill="#ffffff" id="svg_24" d="m8133,6466c-94,-42 -95,-181 -3,-243c82,-57 200,5 200,105c0,42 -33,107 -65,128c-34,22 -94,27 -132,10z"/>
   <path fill="#ffffff" id="svg_25" d="m413,6170c-111,-67 -77,-244 49,-257c138,-14 206,190 88,261c-38,22 -98,20 -137,-4z"/>
   <path fill="#ffffff" id="svg_26" d="m8299,6057c-124,-83 -18,-295 124,-248c52,17 79,53 85,109c12,125 -109,206 -209,139z"/>
   <path fill="#ffffff" id="svg_27" d="m257,5763c-41,-26 -71,-95 -64,-145c20,-147 217,-157 257,-13c16,56 3,109 -35,145c-34,31 -118,38 -158,13z"/>
   <path fill="#ffffff" id="svg_28" d="m8454,5651c-45,-28 -64,-59 -64,-109c0,-90 54,-152 133,-152c76,0 127,54 127,132c0,112 -107,183 -196,129z"/>
   <path fill="#ffffff" id="svg_29" d="m164,5350c-35,-14 -72,-68 -79,-113c-13,-88 45,-157 133,-157c133,0 178,215 55,266c-36,16 -77,17 -109,4z"/>
   <path fill="#ffffff" id="svg_30" d="m8544,5221c-40,-25 -58,-69 -52,-132c6,-63 33,-100 86,-119c113,-40 208,76 158,194c-30,72 -122,100 -192,57z"/>
   <path fill="#ffffff" id="svg_31" d="m93,4915c-45,-19 -73,-69 -73,-128c0,-89 46,-137 133,-137c133,0 176,198 56,262c-40,21 -72,22 -116,3z"/>
   <path fill="#ffffff" id="svg_32" d="m8615,4796c-47,-21 -69,-62 -69,-126c1,-88 49,-140 129,-140c90,0 132,55 127,168c-3,51 -56,103 -112,108c-26,3 -58,-2 -75,-10z"/>
   <path fill="#ffffff" id="svg_33" d="m58,4474c-15,-8 -35,-28 -43,-44c-19,-37 -19,-123 0,-160c42,-81 179,-79 222,3c36,69 12,171 -47,202c-37,19 -97,19 -132,-1z"/>
   <path fill="#ffffff" id="svg_34" d="m8619,4355c-40,-22 -59,-59 -61,-118c-2,-64 22,-110 68,-132c62,-29 135,-10 167,44c22,38 23,138 1,169c-34,49 -120,67 -175,37z"/>
   <path fill="#ffffff" id="svg_35" d="m78,4034c-90,-48 -74,-215 24,-252c138,-53 240,128 133,235c-28,28 -40,33 -81,33c-27,-1 -61,-7 -76,-16z"/>
   <path fill="#ffffff" id="svg_36" d="m8605,3926c-49,-22 -75,-58 -81,-113c-12,-94 38,-153 128,-153c52,1 83,17 109,56c22,34 26,116 6,153c-28,56 -106,83 -162,57z"/>
   <path fill="#ffffff" id="svg_37" d="m160,3613c-52,-19 -86,-88 -75,-154c19,-111 146,-156 224,-79c81,81 19,241 -91,239c-24,0 -50,-3 -58,-6z"/>
   <path fill="#ffffff" id="svg_38" d="m8536,3500c-78,-24 -118,-125 -81,-204c41,-87 187,-89 231,-4c22,42 22,119 1,152c-33,49 -95,73 -151,56z"/>
   <path fill="#ffffff" id="svg_39" d="m263,3186c-67,-31 -90,-112 -54,-193c57,-124 252,-78 251,59c-1,36 -36,105 -64,123c-35,23 -95,28 -133,11z"/>
   <path fill="#ffffff" id="svg_40" d="m8416,3080c-57,-18 -96,-76 -96,-145c0,-77 51,-125 133,-125c77,0 127,58 127,149c0,61 -33,105 -88,121c-42,11 -37,11 -76,0z"/>
   <path fill="#ffffff" id="svg_41" d="m411,2772c-36,-19 -71,-72 -71,-106c0,-39 24,-96 52,-123c25,-24 37,-28 88,-28c54,0 63,3 91,32c58,57 47,165 -22,216c-38,28 -97,32 -138,9z"/>
   <path fill="#ffffff" id="svg_42" d="m8222,2660c-34,-21 -71,-87 -72,-128c-1,-118 147,-176 226,-89c56,61 58,150 4,202c-40,38 -111,45 -158,15z"/>
   <path fill="#ffffff" id="svg_43" d="m626,2390c-144,-44 -105,-270 47,-270c80,0 127,46 127,125c0,102 -84,172 -174,145z"/>
   <path fill="#ffffff" id="svg_44" d="m8018,2275c-69,-38 -92,-155 -42,-214c53,-63 148,-60 204,7c53,65 49,146 -11,197c-35,29 -106,34 -151,10z"/>
   <path fill="#ffffff" id="svg_45" d="m804,1986c-30,-30 -34,-40 -34,-86c0,-94 54,-150 144,-150c54,0 99,33 116,86c17,52 5,98 -39,144c-36,38 -41,40 -95,40c-53,0 -61,-3 -92,-34z"/>
   <path fill="#ffffff" id="svg_46" d="m7787,1916c-58,-32 -94,-101 -83,-161c13,-70 92,-118 163,-100c15,3 45,24 65,46c34,36 38,45 38,95c0,47 -4,59 -33,90c-39,43 -103,55 -150,30z"/>
   <path fill="#ffffff" id="svg_47" d="m1105,1666c-44,-19 -69,-62 -69,-118c0,-62 42,-117 103,-137c37,-12 48,-11 86,3c80,31 107,112 62,189c-41,69 -112,94 -182,63z"/>
   <path fill="#ffffff" id="svg_48" d="m7514,1580c-30,-12 -81,-74 -89,-109c-9,-42 10,-95 46,-126c25,-20 41,-25 86,-25c51,0 58,3 93,38c46,46 59,96 38,150c-25,65 -107,100 -174,72z"/>
   <path fill="#ffffff" id="svg_49" d="m1388,1337c-36,-30 -48,-58 -48,-111c0,-120 156,-181 237,-92c28,31 33,43 33,87c0,48 -3,55 -44,95c-40,41 -47,44 -97,44c-41,0 -60,-5 -81,-23z"/>
   <path fill="#ffffff" id="svg_50" d="m7183,1260c-90,-55 -96,-178 -10,-230c57,-35 121,-24 174,29c56,55 52,145 -8,196c-39,32 -109,34 -156,5z"/>
   <path fill="#ffffff" id="svg_51" d="m6850,991c-71,-37 -98,-115 -65,-185c34,-71 131,-88 203,-37c84,62 78,182 -13,225c-44,21 -82,20 -125,-3z"/>
   <path fill="#ffffff" id="svg_52" d="m6480,752c-44,-24 -69,-58 -76,-103c-12,-75 49,-149 124,-149c46,0 109,35 133,73c30,48 22,119 -19,159c-39,40 -110,49 -162,20z"/>
   <path fill="#ffffff" id="svg_53" d="m2261,694c-83,-70 -47,-202 64,-233c37,-10 97,0 121,20c43,36 57,116 29,170c-37,70 -154,94 -214,43z"/>
   <path fill="#ffffff" id="svg_54" d="m6082,550c-65,-40 -87,-109 -56,-175c31,-66 104,-89 178,-57c62,28 88,71 83,136c-4,42 -10,55 -41,83c-30,28 -43,33 -83,33c-30,0 -60,-7 -81,-20z"/>
   <path fill="#ffffff" id="svg_55" d="m2668,514c-81,-44 -74,-184 11,-229c48,-24 124,-20 160,10c100,85 35,236 -101,235c-24,-1 -55,-7 -70,-16z"/>
   <path fill="#ffffff" id="svg_56" d="m5671,393c-43,-22 -76,-89 -66,-139c10,-55 52,-95 107,-101c97,-11 168,41 168,123c0,86 -48,134 -132,134c-24,0 -58,-8 -77,-17z"/>
   <path fill="#ffffff" id="svg_57" d="m3082,366c-60,-33 -80,-122 -42,-184c24,-40 73,-62 135,-62c94,0 153,103 108,190c-10,20 -33,43 -53,52c-41,21 -115,23 -148,4z"/>
   <path fill="#ffffff" id="svg_58" d="m5276,290c-71,-22 -109,-96 -87,-170c16,-55 61,-85 127,-84c96,2 152,60 142,148c-10,89 -88,134 -182,106z"/>
   <path fill="#ffffff" id="svg_59" d="m3535,273c-39,-11 -64,-36 -81,-79c-14,-37 -15,-51 -5,-84c43,-143 271,-121 271,27c0,81 -42,127 -126,137c-22,2 -48,2 -59,-1z"/>
   <path fill="#ffffff" id="svg_60" d="m4857,220c-83,-15 -132,-114 -93,-188l17,-32l109,0l109,0l16,30c56,107 -32,214 -158,190z"/>
   <path fill="#ffffff" id="svg_61" d="m3915,177c-31,-31 -35,-41 -35,-87c0,-88 3,-90 134,-90c123,0 129,2 141,57c8,42 -8,93 -41,124c-20,19 -38,24 -94,27c-69,4 -70,4 -105,-31z"/>
   <path fill="#ffffff" id="svg_62" d="m4394,186c-61,-27 -96,-102 -75,-159l11,-28l127,3l128,3l3,56c2,45 -1,61 -19,83c-40,51 -113,69 -175,42z"/>
  </g>
 </g>
</svg>